<svg width="129" height="129" viewBox="0 0 129 129" fill="none" xmlns="http://www.w3.org/2000/svg">
<g id="logo">
<g id="cardiology">
<mask id="mask0_35_50" style="mask-type:alpha" maskUnits="userSpaceOnUse" x="32" y="22" width="64" height="64">
<rect id="Bounding box" x="32" y="22" width="63.9077" height="63.9077" fill="#D9D9D9"/>
</mask>
<g mask="url(#mask0_35_50)">
<path id="cardiology_2" d="M51.9712 29.9885C54.279 29.9885 56.4758 30.4767 58.5617 31.4531C60.6475 32.4294 62.4449 33.8052 63.9539 35.5805C65.4628 33.8052 67.2602 32.4294 69.3461 31.4531C71.432 30.4767 73.6288 29.9885 75.9366 29.9885C80.1083 29.9885 83.5922 31.3865 86.3882 34.1825C89.1841 36.9784 90.5821 40.4623 90.5821 44.634C90.5821 44.8559 90.571 45.0778 90.5488 45.2997C90.5266 45.5216 90.5155 45.7436 90.5155 45.9655H85.1899C85.2343 45.7436 85.2565 45.5216 85.2565 45.2997V44.634C85.2565 41.9712 84.3688 39.7522 82.5936 37.977C80.8184 36.2018 78.5994 35.3142 75.9366 35.3142C73.8507 35.3142 71.9202 35.9022 70.1449 37.0783C68.3697 38.2544 67.1493 39.7522 66.4836 41.5718H61.4242C60.7585 39.7522 59.538 38.2544 57.7628 37.0783C55.9876 35.9022 54.0571 35.3142 51.9712 35.3142C49.3084 35.3142 47.0893 36.2018 45.3141 37.977C43.5389 39.7522 42.6513 41.9712 42.6513 44.634V45.2997C42.6513 45.5216 42.6735 45.7436 42.7179 45.9655H37.3922C37.3922 45.7436 37.3811 45.5216 37.3589 45.2997C37.3368 45.0778 37.3257 44.8559 37.3257 44.634C37.3257 40.4623 38.7236 36.9784 41.5196 34.1825C44.3156 31.3865 47.7994 29.9885 51.9712 29.9885ZM46.113 61.9424H53.5689C54.989 63.3182 56.5424 64.8049 58.2288 66.4026C59.9153 68.0003 61.8236 69.7533 63.9539 71.6617C66.0841 69.7533 67.9925 68.0003 69.6789 66.4026C71.3654 64.8049 72.9187 63.3182 74.3389 61.9424H81.8614C80.1749 63.8064 78.1778 65.8257 75.87 68.0003C73.5622 70.1749 70.8772 72.638 67.815 75.3896L63.9539 78.8513L60.0928 75.3896C57.0305 72.638 54.3566 70.1749 52.071 68.0003C49.7854 65.8257 47.7994 63.8064 46.113 61.9424ZM61.4242 64.6052C62.0011 64.6052 62.5004 64.4388 62.922 64.1059C63.3436 63.7731 63.6432 63.3404 63.8207 62.8078L67.4155 51.9568L69.7455 55.4185C69.9674 55.7735 70.2781 56.062 70.6775 56.2839C71.0769 56.5058 71.4985 56.6167 71.9423 56.6167H93.2449V51.2911H73.4735L68.8801 44.5009C68.6138 44.1015 68.2699 43.8019 67.8483 43.6022C67.4266 43.4025 66.9717 43.3026 66.4836 43.3026C65.9066 43.3026 65.4073 43.4691 64.9857 43.8019C64.5641 44.1348 64.2645 44.5675 64.087 45.1L60.4922 55.8845L58.2288 52.4894C58.0069 52.1343 57.6962 51.8459 57.2968 51.6239C56.8974 51.402 56.4758 51.2911 56.032 51.2911H34.6628V56.6167H54.4343L59.0277 63.4069C59.2939 63.8064 59.6379 64.1059 60.0595 64.3056C60.4811 64.5053 60.936 64.6052 61.4242 64.6052Z" fill="#1D98DF"/>
</g>
</g>
<g id="chat_bubble">
<mask id="mask1_35_50" style="mask-type:alpha" maskUnits="userSpaceOnUse" x="0" y="0" width="129" height="129">
<rect id="Bounding box_2" width="129" height="129" fill="#D9D9D9"/>
</mask>
<g mask="url(#mask1_35_50)">
<path id="chat_bubble_2" d="M16.125 107.914V24.8083C16.125 22.334 16.9536 20.2682 18.6109 18.6109C20.2682 16.9536 22.334 16.125 24.8083 16.125H104.192C106.666 16.125 108.732 16.9536 110.389 18.6109C112.046 20.2682 112.875 22.334 112.875 24.8083V82.6917C112.875 85.166 112.046 87.2318 110.389 88.8891C108.732 90.5464 106.666 91.375 104.192 91.375H32.6639L16.125 107.914ZM30.3688 86H104.192C105.019 86 105.778 85.6556 106.467 84.9667C107.156 84.2778 107.5 83.5194 107.5 82.6917V24.8083C107.5 23.9806 107.156 23.2222 106.467 22.5333C105.778 21.8444 105.019 21.5 104.192 21.5H24.8083C23.9806 21.5 23.2222 21.8444 22.5333 22.5333C21.8444 23.2222 21.5 23.9806 21.5 24.8083V94.8379L30.3688 86Z" fill="#1D98DF"/>
</g>
</g>
</g>
</svg>