<svg width="31" height="32" viewBox="0 0 31 32" fill="none" xmlns="http://www.w3.org/2000/svg">
<path id="search" d="M28.2521 31.2689L17.5639 20.5807C16.7157 21.2593 15.7402 21.7965 14.6374 22.1924C13.5347 22.5883 12.3612 22.7862 11.1171 22.7862C8.03505 22.7862 5.42662 21.7188 3.29181 19.584C1.157 17.4492 0.0895996 14.8407 0.0895996 11.7587C0.0895996 8.67665 1.157 6.06823 3.29181 3.93342C5.42662 1.79861 8.03505 0.731201 11.1171 0.731201C14.1991 0.731201 16.8076 1.79861 18.9424 3.93342C21.0772 6.06823 22.1446 8.67665 22.1446 11.7587C22.1446 13.0028 21.9467 14.1763 21.5508 15.279C21.1549 16.3818 20.6177 17.3573 19.9391 18.2055L30.6273 28.8937L28.2521 31.2689ZM11.1171 19.3931C13.2378 19.3931 15.0403 18.6509 16.5248 17.1664C18.0093 15.6819 18.7515 13.8794 18.7515 11.7587C18.7515 9.63802 18.0093 7.83545 16.5248 6.35098C15.0403 4.86651 13.2378 4.12428 11.1171 4.12428C8.99642 4.12428 7.19385 4.86651 5.70938 6.35098C4.22491 7.83545 3.48267 9.63802 3.48267 11.7587C3.48267 13.8794 4.22491 15.6819 5.70938 17.1664C7.19385 18.6509 8.99642 19.3931 11.1171 19.3931Z" fill="#1D98DF"/>
</svg>