<svg width="31" height="32" viewBox="0 0 31 32" fill="none" xmlns="http://www.w3.org/2000/svg">
<path id="search" d="M28.2521 31.2688L17.5639 20.5807C16.7157 21.2593 15.7402 21.7965 14.6374 22.1924C13.5347 22.5882 12.3612 22.7862 11.1171 22.7862C8.03505 22.7862 5.42662 21.7187 3.29181 19.5839C1.157 17.4491 0.0895996 14.8407 0.0895996 11.7587C0.0895996 8.67661 1.157 6.06819 3.29181 3.93338C5.42662 1.79857 8.03505 0.731163 11.1171 0.731163C14.1991 0.731163 16.8076 1.79857 18.9424 3.93338C21.0772 6.06819 22.1446 8.67661 22.1446 11.7587C22.1446 13.0028 21.9467 14.1762 21.5508 15.279C21.1549 16.3817 20.6177 17.3572 19.9391 18.2055L30.6273 28.8937L28.2521 31.2688ZM11.1171 19.3931C13.2378 19.3931 15.0403 18.6508 16.5248 17.1664C18.0093 15.6819 18.7515 13.8793 18.7515 11.7587C18.7515 9.63799 18.0093 7.83541 16.5248 6.35094C15.0403 4.86647 13.2378 4.12424 11.1171 4.12424C8.99642 4.12424 7.19385 4.86647 5.70938 6.35094C4.22491 7.83541 3.48267 9.63799 3.48267 11.7587C3.48267 13.8793 4.22491 15.6819 5.70938 17.1664C7.19385 18.6508 8.99642 19.3931 11.1171 19.3931Z" fill="#1C1B1F"/>
</svg>
