<svg width="31" height="36" viewBox="0 0 31 36" fill="none" xmlns="http://www.w3.org/2000/svg">
<path id="contact_support" d="M16.4933 35.5L16.0558 30.25H15.6183C11.4766 30.25 7.96204 28.8063 5.07454 25.9188C2.18704 23.0313 0.743286 19.5167 0.743286 15.375C0.743286 11.2333 2.18704 7.71875 5.07454 4.83125C7.96204 1.94375 11.4766 0.5 15.6183 0.5C17.6891 0.5 19.6214 0.886458 21.4152 1.65938C23.2089 2.43229 24.7839 3.49687 26.1402 4.85312C27.4964 6.20937 28.561 7.78438 29.3339 9.57812C30.1068 11.3719 30.4933 13.3042 30.4933 15.375C30.4933 17.5625 30.136 19.6625 29.4214 21.675C28.7068 23.6875 27.7297 25.5542 26.4902 27.275C25.2506 28.9958 23.7777 30.5563 22.0714 31.9563C20.3652 33.3563 18.5058 34.5375 16.4933 35.5ZM19.9933 29.1125C22.0641 27.3625 23.7485 25.3135 25.0464 22.9656C26.3443 20.6177 26.9933 18.0875 26.9933 15.375C26.9933 12.1958 25.8922 9.50521 23.6902 7.30313C21.4881 5.10104 18.7975 4 15.6183 4C12.4391 4 9.74849 5.10104 7.54641 7.30313C5.34433 9.50521 4.24329 12.1958 4.24329 15.375C4.24329 18.5542 5.34433 21.2448 7.54641 23.4469C9.74849 25.649 12.4391 26.75 15.6183 26.75H19.9933V29.1125ZM15.5745 24.9563C16.0704 24.9563 16.4933 24.7813 16.8433 24.4313C17.1933 24.0813 17.3683 23.6583 17.3683 23.1625C17.3683 22.6667 17.1933 22.2438 16.8433 21.8938C16.4933 21.5438 16.0704 21.3688 15.5745 21.3688C15.0787 21.3688 14.6558 21.5438 14.3058 21.8938C13.9558 22.2438 13.7808 22.6667 13.7808 23.1625C13.7808 23.6583 13.9558 24.0813 14.3058 24.4313C14.6558 24.7813 15.0787 24.9563 15.5745 24.9563ZM14.3058 19.4H16.9308C16.9308 18.525 17.0183 17.9125 17.1933 17.5625C17.3683 17.2125 17.9225 16.5708 18.8558 15.6375C19.3808 15.1125 19.8183 14.5438 20.1683 13.9313C20.5183 13.3188 20.6933 12.6625 20.6933 11.9625C20.6933 10.475 20.1902 9.35938 19.1839 8.61563C18.1777 7.87188 16.9891 7.5 15.6183 7.5C14.335 7.5 13.2558 7.85729 12.3808 8.57188C11.5058 9.28646 10.8933 10.1542 10.5433 11.175L12.9933 12.1375C13.1391 11.6417 13.4162 11.1531 13.8245 10.6719C14.2329 10.1906 14.8308 9.95 15.6183 9.95C16.4058 9.95 16.9964 10.1688 17.3902 10.6063C17.7839 11.0438 17.9808 11.525 17.9808 12.05C17.9808 12.5458 17.835 12.9906 17.5433 13.3844C17.2516 13.7781 16.9016 14.1792 16.4933 14.5875C15.4725 15.4625 14.8527 16.1552 14.6339 16.6656C14.4152 17.176 14.3058 18.0875 14.3058 19.4Z" fill="#1C1B1F"/>
</svg>