<svg width="67" height="67" viewBox="0 0 67 67" fill="none" xmlns="http://www.w3.org/2000/svg">
<path id="person" d="M33.5 33.5C28.9625 33.5 25.0781 31.8844 21.8469 28.6531C18.6156 25.4219 17 21.5375 17 17C17 12.4625 18.6156 8.57813 21.8469 5.34688C25.0781 2.11563 28.9625 0.5 33.5 0.5C38.0375 0.5 41.9219 2.11563 45.1531 5.34688C48.3844 8.57813 50 12.4625 50 17C50 21.5375 48.3844 25.4219 45.1531 28.6531C41.9219 31.8844 38.0375 33.5 33.5 33.5ZM0.5 66.5V54.95C0.5 52.6125 1.10156 50.4641 2.30469 48.5047C3.50781 46.5453 5.10625 45.05 7.1 44.0188C11.3625 41.8875 15.6937 40.2891 20.0938 39.2234C24.4938 38.1578 28.9625 37.625 33.5 37.625C38.0375 37.625 42.5062 38.1578 46.9062 39.2234C51.3063 40.2891 55.6375 41.8875 59.9 44.0188C61.8938 45.05 63.4922 46.5453 64.6953 48.5047C65.8984 50.4641 66.5 52.6125 66.5 54.95V66.5H0.5ZM8.75 58.25H58.25V54.95C58.25 54.1937 58.0609 53.5062 57.6828 52.8875C57.3047 52.2687 56.8063 51.7875 56.1875 51.4438C52.475 49.5875 48.7281 48.1953 44.9469 47.2672C41.1656 46.3391 37.35 45.875 33.5 45.875C29.65 45.875 25.8344 46.3391 22.0531 47.2672C18.2719 48.1953 14.525 49.5875 10.8125 51.4438C10.1937 51.7875 9.69531 52.2687 9.31719 52.8875C8.93906 53.5062 8.75 54.1937 8.75 54.95V58.25ZM33.5 25.25C35.7688 25.25 37.7109 24.4422 39.3266 22.8266C40.9422 21.2109 41.75 19.2688 41.75 17C41.75 14.7312 40.9422 12.7891 39.3266 11.1734C37.7109 9.55781 35.7688 8.75 33.5 8.75C31.2312 8.75 29.2891 9.55781 27.6734 11.1734C26.0578 12.7891 25.25 14.7312 25.25 17C25.25 19.2688 26.0578 21.2109 27.6734 22.8266C29.2891 24.4422 31.2312 25.25 33.5 25.25Z" fill="#1C1B1F"/>
</svg>
